<svg width="100%" viewBox="0 0 1200 180" xmlns="http://www.w3.org/2000/svg" font-family="Segoe UI, Helvetica, Arial, sans-serif">
  <defs>
    <linearGradient id="bg5" x1="0" y1="0" x2="1" y2="1">
      <stop offset="0%" stop-color="#0D1117"/>
      <stop offset="100%" stop-color="#10131c"/>
    </linearGradient>
  </defs>
  <rect width="1200" height="180" fill="url(#bg5)"/>

  <!-- GitHub -->
  <g>
    <rect x="40" y="20" width="260" height="140" rx="16" fill="#F8FAFC" fill-opacity="0.035" stroke="#00E5FF" stroke-opacity="0.35"/>
    <rect x="66" y="46" width="20" height="20" rx="5" fill="none" stroke="#00E5FF" stroke-width="2"/>
    <text x="66" y="106" font-size="17" font-weight="700" fill="#F8FAFC">GitHub</text>
    <text x="66" y="128" font-size="12" fill="#94A3B8">@pcpitroda</text>
  </g>

  <!-- LinkedIn -->
  <g>
    <rect x="320" y="20" width="260" height="140" rx="16" fill="#F8FAFC" fill-opacity="0.035" stroke="#38BDF8" stroke-opacity="0.35"/>
    <circle cx="376" cy="56" r="10" fill="none" stroke="#38BDF8" stroke-width="2"/>
    <text x="346" y="106" font-size="17" font-weight="700" fill="#F8FAFC">LinkedIn</text>
    <text x="346" y="128" font-size="12" fill="#94A3B8">Priya Pitroda</text>
  </g>

  <!-- Portfolio -->
  <g>
    <rect x="600" y="20" width="260" height="140" rx="16" fill="#F8FAFC" fill-opacity="0.035" stroke="#7C3AED" stroke-opacity="0.35"/>
    <path d="M626 66 L636 46 L646 66 Z" fill="none" stroke="#7C3AED" stroke-width="2" stroke-linejoin="round"/>
    <text x="626" y="106" font-size="17" font-weight="700" fill="#F8FAFC">Portfolio</text>
    <text x="626" y="128" font-size="12" fill="#94A3B8">Selected work &amp; case studies</text>
  </g>

  <!-- Email -->
  <g>
    <rect x="880" y="20" width="260" height="140" rx="16" fill="#F8FAFC" fill-opacity="0.035" stroke="#00E5FF" stroke-opacity="0.35"/>
    <rect x="906" y="48" width="22" height="16" rx="2" fill="none" stroke="#00E5FF" stroke-width="2"/>
    <path d="M906 48 L917 58 L928 48" fill="none" stroke="#00E5FF" stroke-width="2"/>
    <text x="906" y="106" font-size="17" font-weight="700" fill="#F8FAFC">Email</text>
    <text x="906" y="128" font-size="12" fill="#94A3B8">Let&#8217;s build something</text>
  </g>
</svg>
