<svg width="100%" viewBox="0 0 1200 760" xmlns="http://www.w3.org/2000/svg" font-family="Segoe UI, Helvetica, Arial, sans-serif">
  <defs>
    <linearGradient id="bg3" x1="0" y1="0" x2="1" y2="1">
      <stop offset="0%" stop-color="#0D1117"/>
      <stop offset="100%" stop-color="#10131c"/>
    </linearGradient>
    <linearGradient id="acc2" x1="0" y1="0" x2="1" y2="0">
      <stop offset="0%" stop-color="#00E5FF"/>
      <stop offset="100%" stop-color="#7C3AED"/>
    </linearGradient>
  </defs>
  <rect width="1200" height="760" fill="url(#bg3)"/>

  <!-- Featured large card -->
  <g>
    <rect x="40" y="30" width="1120" height="220" rx="20" fill="#F8FAFC" fill-opacity="0.04" stroke="#F8FAFC" stroke-opacity="0.1"/>
    <rect x="40" y="30" width="1120" height="3" rx="1.5" fill="url(#acc2)"/>
    <text x="72" y="90" font-size="14" letter-spacing="2" fill="#38BDF8">FEATURED</text>
    <text x="72" y="130" font-size="30" font-weight="700" fill="#F8FAFC">DeepVision AI</text>
    <text x="72" y="164" font-size="16" fill="#94A3B8">Computer-vision platform for real-time object detection &amp; image analysis.</text>
    <text x="72" y="196" font-size="13" fill="#00E5FF">Python &#183; TensorFlow &#183; OpenCV &#183; Flask</text>
  </g>

  <!-- 2x2 grid below -->
  <g>
    <rect x="40" y="280" width="540" height="220" rx="18" fill="#F8FAFC" fill-opacity="0.035" stroke="#F8FAFC" stroke-opacity="0.09"/>
    <rect x="40" y="280" width="3" height="220" fill="url(#acc2)"/>
    <text x="68" y="322" font-size="22" font-weight="700" fill="#F8FAFC">Smart Home Website</text>
    <text x="68" y="352" font-size="14" fill="#94A3B8">Product site for an IoT smart-home</text>
    <text x="68" y="372" font-size="14" fill="#94A3B8">automation system.</text>
    <text x="68" y="404" font-size="13" fill="#00E5FF">React &#183; Tailwind CSS &#183; Node.js</text>
  </g>

  <g>
    <rect x="620" y="280" width="540" height="220" rx="18" fill="#F8FAFC" fill-opacity="0.035" stroke="#F8FAFC" stroke-opacity="0.09"/>
    <rect x="620" y="280" width="3" height="220" fill="url(#acc2)"/>
    <text x="648" y="322" font-size="22" font-weight="700" fill="#F8FAFC">Music Artist Website</text>
    <text x="648" y="352" font-size="14" fill="#94A3B8">Portfolio &amp; streaming showcase site</text>
    <text x="648" y="372" font-size="14" fill="#94A3B8">for an independent music artist.</text>
    <text x="648" y="404" font-size="13" fill="#00E5FF">Next.js &#183; Framer Motion &#183; CSS</text>
  </g>

  <g>
    <rect x="40" y="520" width="540" height="200" rx="18" fill="#F8FAFC" fill-opacity="0.035" stroke="#F8FAFC" stroke-opacity="0.09"/>
    <rect x="40" y="520" width="3" height="200" fill="url(#acc2)"/>
    <text x="68" y="562" font-size="22" font-weight="700" fill="#F8FAFC">IPL Analysis</text>
    <text x="68" y="592" font-size="14" fill="#94A3B8">Data-driven exploration of IPL</text>
    <text x="68" y="612" font-size="14" fill="#94A3B8">match statistics &amp; trends.</text>
    <text x="68" y="644" font-size="13" fill="#00E5FF">Python &#183; Pandas &#183; Matplotlib</text>
  </g>

  <g>
    <rect x="620" y="520" width="540" height="200" rx="18" fill="#F8FAFC" fill-opacity="0.035" stroke="#F8FAFC" stroke-opacity="0.09"/>
    <rect x="620" y="520" width="3" height="200" fill="url(#acc2)"/>
    <text x="648" y="562" font-size="22" font-weight="700" fill="#F8FAFC">NLP Web App</text>
    <text x="648" y="592" font-size="14" fill="#94A3B8">Web app applying natural-language</text>
    <text x="648" y="612" font-size="14" fill="#94A3B8">processing to text-based tasks.</text>
    <text x="648" y="644" font-size="13" fill="#00E5FF">Python &#183; NLTK &#183; Flask</text>
  </g>
</svg>
